# xmcd CD database file
#
# Track frame offsets:
#	150
#	14325
#	29175
#	43575
#	57075
#	70875
#	83700
#	96675
#	110325
#	125700
#	138824
#	153449
#	166199
#	180524
#	194849
#	207224
#
# Disc length: 2947 seconds
#
# Revision: 0
# Processed by: cddbd v1.5.2PL0 Copyright (c) Steve Scherf et al.
# Submitted via: CDex 1.51
#
DISCID=e40b8110
DTITLE=Miles Davis - I've always got the Blues
DYEAR=1900
DGENRE=Blues
TTITLE0=I've always got the Blues
TTITLE1=Sippin' at Bells
TTITLE2=Birds of Paradise
TTITLE3=You left me alone
TTITLE4=A night in Tunesia
TTITLE5=Pointless Mama Blues
TTITLE6=Little Willie Leapes
TTITLE7=Don't explain to Me Baby
TTITLE8=Embraceable You
TTITLE9=Don't sing me the Blues
TTITLE10=Deep Sea Blues
TTITLE11=Bring it On Home
TTITLE12=Billie's Bounce
TTITLE13=Baby, Won't you make up your mind
TTITLE14=Half Nelson
TTITLE15=That's the staff you gotta watch
EXTD=
EXTT0=
EXTT1=
EXTT2=
EXTT3=
EXTT4=
EXTT5=
EXTT6=
EXTT7=
EXTT8=
EXTT9=
EXTT10=
EXTT11=
EXTT12=
EXTT13=
EXTT14=
EXTT15=
PLAYORDER=
